<svg width="32" height="32" viewBox="0 0 32 32" fill="none" xmlns="http://www.w3.org/2000/svg">
<path fill-rule="evenodd" clip-rule="evenodd" d="M0 16A16 16 0 1 0 32 16A16 16 0 1 0 0 16ZM20.457 18.719Q20.457 19.839 20.019 20.589Q19.581 21.339 18.831 21.782Q18.081 22.225 17.151 22.41Q16.221 22.595 15.227 22.595L11.293 22.595L11.293 9.155L14.964 9.155Q15.909 9.155 16.786 9.321Q17.662 9.486 18.358 9.871Q19.055 10.256 19.464 10.913Q19.873 11.57 19.873 12.554Q19.873 13.401 19.522 13.995Q19.172 14.589 18.602 14.955Q18.032 15.32 17.389 15.476Q18.12 15.602 18.826 15.938Q19.532 16.274 19.995 16.941Q20.457 17.609 20.457 18.719ZM17.584 12.739Q17.584 11.726 16.951 11.288Q16.318 10.85 15.169 10.85L13.552 10.85L13.552 14.736L15.305 14.736Q16.435 14.736 17.01 14.263Q17.584 13.791 17.584 12.739ZM18.1 18.709Q18.1 17.813 17.75 17.312Q17.399 16.81 16.805 16.61Q16.211 16.411 15.471 16.411L13.552 16.411L13.552 20.842L15.373 20.842Q16.016 20.842 16.644 20.681Q17.273 20.521 17.686 20.063Q18.1 19.605 18.1 18.709Z" fill="white"/>
</svg>
